<svg width="52" height="58" viewBox="0 0 52 58" fill="none" xmlns="http://www.w3.org/2000/svg">
<path id="Star 1" d="M20.2181 3.04624C23.3687 -0.24839 28.6313 -0.248389 31.7819 3.04624L35.9052 7.35818C36.9597 8.46088 38.3075 9.23904 39.7897 9.6009L45.5857 11.0159C50.0142 12.097 52.6455 16.6546 51.3675 21.0304L49.695 26.7573C49.2673 28.2218 49.2673 29.7782 49.695 31.2427L51.3675 36.9697C52.6455 41.3454 50.0142 45.903 45.5857 46.9841L39.7897 48.3991C38.3075 48.761 36.9597 49.5391 35.9052 50.6418L31.7819 54.9538C28.6313 58.2484 23.3687 58.2484 20.2181 54.9538L16.0948 50.6418C15.0403 49.5391 13.6925 48.761 12.2103 48.3991L6.41431 46.9841C1.9858 45.903 -0.645492 41.3454 0.632458 36.9696L2.30501 31.2427C2.73274 29.7782 2.73274 28.2218 2.30501 26.7573L0.632457 21.0303C-0.645494 16.6546 1.9858 12.097 6.41431 11.0159L12.2103 9.6009C13.6925 9.23904 15.0403 8.46088 16.0948 7.35818L20.2181 3.04624Z" fill="#506B52"/>
</svg>
