<svg width="25" height="25" viewBox="0 0 25 25" fill="none" xmlns="http://www.w3.org/2000/svg">
<g id="bx:bxl-linkedin">
<path id="Vector" d="M5.48292 7.697C6.69132 7.697 7.67092 6.7174 7.67092 5.509C7.67092 4.3006 6.69132 3.321 5.48292 3.321C4.27452 3.321 3.29492 4.3006 3.29492 5.509C3.29492 6.7174 4.27452 7.697 5.48292 7.697Z" fill="#0A66C2"/>
<path id="Vector_2" d="M9.73722 9.355V21.494H13.5062V15.491C13.5062 13.907 13.8042 12.373 15.7682 12.373C17.7052 12.373 17.7292 14.184 17.7292 15.591V21.495H21.5002V14.838C21.5002 11.568 20.7962 9.055 16.9742 9.055C15.1392 9.055 13.9092 10.062 13.4062 11.015H13.3552V9.355H9.73722ZM3.59521 9.355H7.37021V21.494H3.59521V9.355Z" fill="#0A66C2"/>
</g>
</svg>
